HIERARCHY
ROOT Hips
{
	OFFSET -3.958830 18.904000 13.208200
	CHANNELS 6 Xposition Yposition Zposition Zrotation Yrotation Xrotation 
	JOINT LHipJoint
	{
		OFFSET 0.000000 0.000000 0.000000
		CHANNELS 3 Zrotation Yrotation Xrotation
		JOINT LeftUpLeg
		{
			OFFSET 1.800000 -1.400000 0.085000
			CHANNELS 3 Zrotation Yrotation Xrotation
			JOINT LeftLeg
			{
				OFFSET 2.215000 -6.000000 0.000000
				CHANNELS 3 Zrotation Yrotation Xrotation
				JOINT LeftFoot
				{
					OFFSET 2.500000 -6.900000 0.000000
					CHANNELS 3 Zrotation Yrotation Xrotation
					JOINT LeftToeBase
					{
						OFFSET 0.200000 -0.500000 1.950000
						CHANNELS 3 Zrotation Yrotation Xrotation
						End Site
						{
							OFFSET 0.000000 0.000000 0.000000
						}
					}
				}
			}
		}
	}
	JOINT RHipJoint
	{
		OFFSET 0.000000 0.000000 0.000000
		CHANNELS 3 Zrotation Yrotation Xrotation
		JOINT RightUpLeg
		{
			OFFSET -1.800000 -1.400000 0.085000
			CHANNELS 3 Zrotation Yrotation Xrotation
			JOINT RightLeg
			{
				OFFSET -2.215000 -6.000000 0.000000
				CHANNELS 3 Zrotation Yrotation Xrotation
				JOINT RightFoot
				{
					OFFSET -2.500000 -6.900000 0.000000
					CHANNELS 3 Zrotation Yrotation Xrotation
					JOINT RightToeBase
					{
						OFFSET -0.200000 -0.500000 1.950000
						CHANNELS 3 Zrotation Yrotation Xrotation
						End Site
						{
							OFFSET 0.000000 0.000000 0.000000
						}
					}
				}
			}
		}
	}
	JOINT LowerBack
	{
		OFFSET 0.000000 0.000000 0.000000
		CHANNELS 3 Zrotation Yrotation Xrotation
		JOINT Spine
		{
			OFFSET -0.087000 1.940000 -0.288900
			CHANNELS 3 Zrotation Yrotation Xrotation
			JOINT Spine1
			{
				OFFSET 0.000000 1.950000 0.060000
				CHANNELS 3 Zrotation Yrotation Xrotation
				JOINT Neck
				{
					OFFSET 0.000000 0.000000 0.000000
					CHANNELS 3 Zrotation Yrotation Xrotation
					JOINT Neck1
					{
						OFFSET 0.000000 1.600000 0.340000
						CHANNELS 3 Zrotation Yrotation Xrotation
						JOINT Head
						{
							OFFSET 0.000000 1.667000 -0.240000
							CHANNELS 3 Zrotation Yrotation Xrotation
							End Site
							{
								OFFSET 0.000000 0.000000 0.000000
							}
						}
					}
				}
				JOINT LeftShoulder
				{
					OFFSET 0.000000 0.000000 0.000000
					CHANNELS 3 Zrotation Yrotation Xrotation
					JOINT LeftArm
					{
						OFFSET 2.700000 1.550000 -0.730000
						CHANNELS 3 Zrotation Yrotation Xrotation
						JOINT LeftForeArm
						{
							OFFSET 5.450000 0.000000 0.000000
							CHANNELS 3 Zrotation Yrotation Xrotation
							JOINT LeftHand
							{
								OFFSET 3.450000 0.000000 0.000000
								CHANNELS 3 Zrotation Yrotation Xrotation
								JOINT LeftHandIndex1
								{
									OFFSET 0.750000 0.000000 0.000000
									CHANNELS 3 Zrotation Yrotation Xrotation
									End Site
									{
										OFFSET 0.000000 0.000000 0.000000
									}
								}
							}
						}
					}
				}
				JOINT RightShoulder
				{
					OFFSET 0.000000 0.000000 0.000000
					CHANNELS 3 Zrotation Yrotation Xrotation
					JOINT RightArm
					{
						OFFSET -2.700000 1.550000 -0.730000
						CHANNELS 3 Zrotation Yrotation Xrotation
						JOINT RightForeArm
						{
							OFFSET -5.450000 0.000000 0.000000
							CHANNELS 3 Zrotation Yrotation Xrotation
							JOINT RightHand
							{
								OFFSET -3.450000 0.000000 0.000000
								CHANNELS 3 Zrotation Yrotation Xrotation
								JOINT RightHandIndex1
								{
									OFFSET -0.750000 0.000000 0.000000
									CHANNELS 3 Zrotation Yrotation Xrotation
									End Site
									{
										OFFSET 0.000000 0.000000 0.000000
									}
								}
							}
						}
					}
				}
			}
		}
	}
}
MOTION
Frames: 12
Frame Time: 0.016667
0.074380 17.117770 -1.200510 -3.573859 -3.370747 4.455162 -15.099067 13.021145 2.666776 2.945816 -0.218965 -4.427030 -7.116333 4.963085 5.569883 -0.318503 4.369961 3.516417 0.352500 -0.062800 0.067990 18.526397 -10.206878 3.153781 -1.029633 5.839743 -31.831311 5.030660 -5.791645 28.546313 -0.001945 -3.982962 3.250318 0.099270 0.702530 0.229170 -4.054002 -1.729812 -6.786270 12.430812 -5.353725 4.303030 -7.439467 -4.692079 3.944269 1.413446 -5.447415 -4.733570 -9.546654 8.219011 23.130704 0.470120 3.660460 1.933410 -17.573589 7.790367 -0.649436 -53.984432 8.064507 -10.092772 -13.189932 -12.617723 -1.224730 -4.135915 3.007439 0.187750 0.494000 -0.471900 0.395680 14.458960 -5.666775 1.568817 53.742435 -8.857973 -13.450250 36.083030 22.798700 2.440529 1.941492 -1.821036 -0.276010 0.213830 -0.027470 -0.124190 
0.067120 17.119120 -1.194570 -3.490498 -3.724622 4.570660 -15.108314 13.036065 2.674614 2.863350 -0.198419 -4.406996 -7.174398 4.983440 5.590388 -0.316751 4.372058 3.511592 0.352450 -0.058950 0.069040 18.517647 -10.192422 3.143796 -0.826268 5.708284 -31.768046 5.062786 -5.536080 27.019572 0.037681 -3.754064 3.335929 0.100600 0.696480 0.224250 -4.026301 -1.778404 -6.772800 12.276813 -5.431665 4.225717 -7.395372 -4.757677 4.114135 1.389932 -5.563433 -4.827415 -9.763098 8.366181 22.964360 0.405840 3.817270 1.789510 -16.971591 7.957530 -0.598613 -54.499745 8.190173 -10.276797 -13.067033 -12.282686 -1.280083 -4.138945 2.998474 0.188050 0.491490 -0.470800 0.391700 13.928278 -5.731924 1.633901 53.950934 -9.062566 -13.632244 36.387749 22.287864 2.306821 1.941432 -1.817294 -0.275630 0.213570 -0.027570 -0.126490 
0.051640 17.116450 -1.181140 -3.232439 -4.156764 5.024756 -15.135195 13.030521 2.683839 2.650756 -0.198677 -4.593353 -7.495322 5.023575 5.513483 -0.317994 4.407633 3.512640 0.338830 -0.067100 0.046280 18.500477 -10.155416 3.117068 -0.496961 5.476788 -31.718977 5.006771 -5.018799 24.096821 0.119418 -3.371759 3.478872 0.108110 0.735140 0.229110 -3.962904 -1.834538 -6.715847 11.798006 -5.460916 3.701752 -7.160219 -4.822842 4.474681 1.257521 -5.637794 -4.860187 -9.810551 8.611612 21.966852 0.322130 3.968330 2.119380 -15.767125 8.561604 -0.586614 -55.271361 8.300377 -10.463627 -13.220528 -11.821241 -1.340865 -4.179441 3.001737 0.160790 0.521640 -0.497390 0.399630 13.070698 -6.225762 1.647302 54.343881 -9.567404 -13.995996 37.179476 22.453172 2.361098 1.922245 -1.844364 -0.285870 0.222700 -0.016480 -0.115420 
0.032840 17.112370 -1.164950 -2.790921 -4.720274 5.596974 -15.176050 13.031905 2.691045 2.155074 -0.188613 -4.869404 -7.686085 5.052259 5.548526 -0.344989 4.444155 3.524790 0.317430 -0.088600 0.033240 18.472281 -10.106066 3.086492 -0.244631 5.178806 -31.609244 4.889069 -4.407303 20.520633 0.215423 -2.951677 3.646333 0.123390 0.787260 0.215180 -3.863643 -1.923799 -6.649132 10.914567 -5.443276 3.084338 -6.715367 -4.849322 4.922024 1.092917 -5.595613 -4.850207 -9.647734 8.867422 20.808383 0.166240 4.198090 2.361160 -14.324053 9.377762 -0.595272 -56.195373 8.482677 -10.737531 -13.304671 -11.486162 -1.411872 -4.234505 2.969247 0.137080 0.560750 -0.538630 0.401400 12.081322 -6.971571 1.617407 54.793407 -10.202050 -14.470673 38.118745 23.101626 2.562858 1.887668 -1.860867 -0.323100 0.259820 -0.000310 -0.117200 
0.016410 17.106300 -1.145470 -2.303579 -5.105317 6.189837 -15.221646 13.036180 2.698173 1.613806 -0.172814 -5.080800 -7.652495 4.995193 5.402083 -0.359465 4.438070 3.539946 0.325820 -0.072830 0.039240 18.440105 -10.047588 3.053956 -0.209642 4.836866 -31.325431 4.876619 -3.846196 16.731687 0.279267 -2.603273 3.778435 0.146850 0.813700 0.224230 -3.753932 -2.036339 -6.592631 9.984646 -5.435326 2.483441 -6.182129 -4.899727 5.386684 0.970476 -5.491987 -4.857371 -9.387737 9.004348 19.631490 -0.255550 4.527440 2.270320 -12.899099 10.248789 -0.610401 -57.094163 8.705943 -11.081135 -13.539710 -11.253982 -1.467378 -4.273855 2.970851 0.109960 0.592530 -0.555590 0.409350 11.035659 -7.816178 1.645059 55.265777 -11.149966 -15.132631 39.273828 24.259668 2.919258 1.851220 -1.904140 -0.329170 0.268360 -0.004470 -0.113600 
0.001700 17.097340 -1.120320 -1.954992 -5.377020 6.816299 -15.256792 13.016380 2.695821 1.281981 -0.177559 -5.262525 -7.695911 4.947877 5.137579 -0.383196 4.466167 3.546375 0.307040 -0.095860 0.026250 18.418483 -9.983617 3.041127 -0.384163 4.581173 -30.936324 5.330086 -3.479687 13.292902 0.337263 -2.416465 3.862622 0.156850 0.859430 0.234870 -3.677270 -2.105877 -6.554735 9.423640 -5.468927 1.861335 -5.869156 -4.995172 5.745448 1.000688 -5.224958 -4.864423 -8.841791 9.213869 18.499855 -0.743810 5.002580 2.742280 -11.684120 11.129556 -0.642020 -57.760875 9.157380 -11.514084 -13.731542 -11.433885 -1.503136 -4.337062 2.972491 0.075930 0.645060 -0.597280 0.407640 9.888771 -8.865046 1.745927 55.687318 -12.362377 -15.854217 40.972651 25.981170 3.575393 1.794513 -1.956011 -0.349500 0.273710 0.013930 -0.118100 
-0.012110 17.089490 -1.094350 -1.759033 -5.511012 7.366660 -15.280277 12.995107 2.682922 1.125182 -0.193992 -5.415768 -7.595179 4.875722 4.876431 -0.400585 4.481809 3.557546 0.287660 -0.114090 0.018360 18.405353 -9.930477 3.040298 -0.582058 4.387875 -30.389322 5.865761 -3.209513 10.442307 0.367078 -2.338655 3.898611 0.164300 0.900720 0.251140 -3.630074 -2.149880 -6.531724 9.183679 -5.593504 1.377182 -5.728178 -5.178769 5.983333 1.101551 -4.940272 -4.832405 -8.290822 9.362714 17.572772 -1.370360 5.551110 3.108290 -10.871735 11.921021 -0.695294 -57.945715 9.752030 -11.930553 -13.916209 -11.799063 -1.511096 -4.394132 2.973254 0.043580 0.694320 -0.625640 0.405900 8.979761 -9.901517 1.833649 55.854036 -13.577949 -16.464347 42.672691 27.807496 4.351266 1.745643 -2.007199 -0.364290 0.277510 0.027420 -0.118160 
-0.026190 17.079940 -1.066910 -1.571534 -5.714719 8.006656 -15.298608 12.943845 2.668948 0.966779 -0.219989 -5.623153 -7.712710 4.829507 4.581242 -0.426533 4.514437 3.561582 0.276270 -0.112370 -0.006790 18.400930 -9.879540 3.047726 -0.741402 4.284147 -29.954268 6.373245 -2.985172 8.168784 0.394161 -2.346668 3.906777 0.193440 0.959220 0.268650 -3.603877 -2.136794 -6.503033 8.973935 -5.645862 0.810235 -5.585427 -5.310130 6.024113 1.143284 -4.615898 -4.596981 -7.667661 9.635741 16.491521 -1.718410 5.943890 3.543090 -10.189323 13.083573 -0.926852 -57.923770 10.289322 -12.169341 -13.820853 -12.150949 -1.511380 -4.470578 2.983103 -0.007930 0.759980 -0.669540 0.413100 8.319443 -11.323047 1.748736 55.687789 -14.845634 -16.773717 44.550116 29.745352 5.308395 1.679803 -2.078988 -0.378870 0.286420 0.044530 -0.109970 
-0.035380 17.074040 -1.034470 -1.436235 -5.583865 8.501092 -15.314845 12.911057 2.656271 0.916125 -0.239448 -5.736722 -7.856338 4.818993 4.399307 -0.450558 4.556457 3.560698 0.277420 -0.107620 -0.005730 18.395119 -9.835497 3.046942 -0.909039 4.141850 -29.295668 6.801846 -2.792037 6.189599 0.404736 -2.385591 3.901459 0.220840 0.995840 0.281350 -3.578108 -2.153191 -6.482867 8.956340 -5.853492 0.380421 -5.515773 -5.593224 5.910831 1.247234 -4.356153 -4.311835 -7.198331 9.766745 15.629827 -2.208650 6.335000 3.789040 -9.788436 14.290294 -1.265858 -57.925363 10.802393 -12.433569 -13.009569 -12.553126 -1.542875 -4.532500 2.979591 -0.042580 0.809560 -0.700930 0.416890 7.801194 -12.810595 1.718057 55.359412 -16.481740 -17.192170 46.656554 31.956768 6.485741 1.614359 -2.149958 -0.393550 0.292060 0.049040 -0.113440 
-0.043400 17.068580 -1.003290 -1.445443 -5.400062 8.956547 -15.320824 12.876741 2.638133 1.014634 -0.271400 -5.855728 -7.980490 4.806606 4.285869 -0.461970 4.571920 3.554327 0.304020 -0.064140 0.004070 18.398193 -9.807179 3.050433 -0.849486 4.066405 -28.687650 7.005178 -2.617322 4.723764 0.398660 -2.432246 3.882144 0.262070 1.007110 0.300610 -3.578541 -2.137560 -6.462920 9.225191 -6.130597 0.034468 -5.467800 -5.961707 5.604553 1.303644 -4.194488 -3.931785 -6.908930 10.007025 14.792663 -2.557430 6.736070 3.755590 -9.439736 15.741127 -1.624442 -58.003476 11.508755 -12.874704 -12.191730 -13.470154 -1.541200 -4.567166 2.999987 -0.078180 0.842320 -0.709470 0.429270 7.418048 -14.476595 1.576465 54.932573 -18.061736 -17.471668 48.554873 34.406604 7.867243 1.559178 -2.236634 -0.386220 0.281350 0.033810 -0.108380 
-0.048890 17.071870 -0.975510 -1.468871 -5.075940 9.253496 -15.327145 12.876199 2.620886 1.101217 -0.288563 -5.955718 -7.974672 4.816491 4.373832 -0.476654 4.580135 3.551429 0.318300 -0.044870 0.028250 18.396861 -9.786199 3.045909 -0.760484 3.970037 -28.021605 6.941203 -2.471763 3.571146 0.389397 -2.462788 3.874218 0.282050 1.002860 0.309130 -3.569860 -2.173840 -6.447334 9.565268 -6.503539 -0.132653 -5.332712 -6.436788 5.139880 1.357489 -4.087665 -3.510278 -6.760114 10.183360 14.370785 -3.241720 7.357020 3.676260 -9.099727 17.224583 -1.953929 -58.075495 12.223448 -13.322517 -11.654028 -14.514261 -1.506805 -4.585255 2.995341 -0.087770 0.861740 -0.707820 0.430370 7.035401 -16.168532 1.352226 54.730306 -19.240984 -17.642259 49.659963 36.814370 9.252578 1.515521 -2.292181 -0.389300 0.273650 0.018680 -0.118650 
-0.056070 17.080540 -0.955760 -1.464038 -5.181684 9.421757 -15.327592 12.872290 2.618449 1.092732 -0.294070 -5.987262 -8.012244 4.820815 4.393443 -0.483821 4.573939 3.543467 0.335810 -0.029720 0.051880 18.398954 -9.784891 3.038516 -0.617131 3.914455 -27.582440 6.859288 -2.424977 3.123518 0.373987 -2.470000 3.872128 0.286600 0.982830 0.316420 -3.572564 -2.176724 -6.439304 9.783588 -6.627695 -0.112211 -5.348107 -6.634927 4.591151 1.438298 -4.059806 -3.046911 -6.734262 10.338680 14.372013 -3.507010 7.735280 3.357340 -9.087371 18.542526 -2.352533 -57.898242 12.687291 -13.641140 -10.555722 -15.876238 -1.484433 -4.579633 2.989815 -0.076100 0.856840 -0.693490 0.426270 6.877419 -17.594251 1.141266 54.713858 -20.116769 -17.777542 50.381796 38.815450 10.466353 1.487756 -2.318920 -0.381830 0.263830 0.010200 -0.130140 
